<svg width="95" height="20" viewBox="0 0 95 20" fill="none" xmlns="http://www.w3.org/2000/svg">
<path d="M3.19849 4.35889C2.57588 4.35889 2.06445 4.85083 2.02173 5.48486L2.01489 5.58057V6.48682L9.27075 10.7241C9.2726 10.6308 9.27519 10.5092 9.27661 10.3687C9.27994 10.0382 9.28012 9.60347 9.26685 9.18701C9.24121 8.38718 8.86575 7.67922 8.29907 7.20557L3.65161 4.44971C3.51624 4.39018 3.36165 4.35891 3.19849 4.35889ZM9.54321 18.8179L9.3645 18.7104L1.78931 14.1733V14.1724C0.833576 13.6774 0.177123 12.6654 0.177002 11.4907V5.47705C0.177002 3.82238 1.48133 2.47527 3.0979 2.4751H3.11157C3.66169 2.4751 4.17708 2.63278 4.61548 2.90479H4.6145L4.61646 2.90576C4.61868 2.90707 4.62195 2.90911 4.62622 2.91162C4.635 2.91679 4.64831 2.92408 4.66528 2.93408C4.69928 2.95412 4.74916 2.98352 4.81274 3.021C4.94008 3.09605 5.12232 3.20388 5.34204 3.3335C5.7816 3.5928 6.37133 3.94069 6.97095 4.29541C8.16745 5.00322 9.41183 5.74218 9.57739 5.85205C10.3484 6.36378 11.0332 7.10843 11.1047 8.27002C11.1149 8.43529 11.115 9.12634 11.1125 9.76807C11.1113 10.0903 11.1092 10.4026 11.1077 10.6343C11.1069 10.7499 11.1062 10.8458 11.1057 10.9126C11.1055 10.946 11.1049 10.9729 11.1047 10.9907V11.0835L11.0471 11.1177L10.3264 11.5493L10.3274 11.5503L8.79224 12.4771L8.73267 12.5132L8.67212 12.478L2.01489 8.65869V11.5806L2.02856 11.7124C2.07654 12.0127 2.23328 12.2753 2.4563 12.4487L9.4856 16.6548L9.54321 16.689V18.8179Z" fill="#0b0f1a" stroke="#0b0f1a" stroke-width="0.23626"/>
<path d="M14.8845 8.7876L14.825 8.82178L13.3064 9.69385L13.1316 9.79346L13.1287 9.59229V9.56982C13.1285 9.5549 13.1281 9.53248 13.1277 9.50439C13.1269 9.44829 13.1254 9.36782 13.1238 9.27002C13.1206 9.07371 13.1167 8.8073 13.1101 8.52881C13.0969 7.96724 13.0765 7.36744 13.0496 7.17334C12.9153 6.20697 12.3402 5.38589 11.7009 4.87646C11.5534 4.75898 11.0815 4.45171 10.447 4.05127C9.81581 3.65291 9.03176 3.16709 8.26636 2.69678C7.50102 2.22651 6.75482 1.77152 6.19995 1.43408C5.92252 1.26536 5.69221 1.12595 5.53198 1.02881C5.4521 0.980377 5.38909 0.942331 5.34644 0.916504C5.32524 0.903668 5.30856 0.893838 5.29761 0.887207C5.29233 0.884016 5.28863 0.881052 5.28589 0.879395L5.28198 0.877441L5.12476 0.781738L5.27612 0.678223C5.73537 0.36341 6.29276 0.177246 6.89136 0.177246C7.44117 0.177338 7.95608 0.335125 8.39429 0.606934C8.39477 0.607231 8.39625 0.607321 8.39722 0.60791C8.3991 0.609062 8.40139 0.611548 8.40503 0.61377C8.41263 0.618411 8.42446 0.625261 8.43921 0.634277C8.46865 0.652268 8.5119 0.678608 8.56714 0.712402C8.67814 0.780307 8.83797 0.878601 9.03198 0.997559C9.41998 1.23546 9.94667 1.55787 10.4988 1.89893C11.6015 2.58014 12.8127 3.3362 13.2332 3.62451C14.093 4.2142 14.8209 5.33684 14.8835 6.38818L14.8845 6.39502V8.7876Z" fill="#FF8000" stroke="#FF8000" stroke-width="0.23626"/>
<mask id="path-3-outside-1_3512_21285" maskUnits="userSpaceOnUse" x="19.8645" y="4.52832" width="75" height="11" fill="black">
<rect fill="white" x="19.8645" y="4.52832" width="75" height="11"/>
<path d="M28.454 10.0044C28.454 10.3904 28.3575 10.7443 28.1645 11.066C27.9795 11.3877 27.7261 11.645 27.4044 11.8381C27.0908 12.023 26.7369 12.1155 26.3428 12.1155H21.7223C21.8912 12.4694 22.1406 12.7589 22.4703 12.9841C22.8081 13.2093 23.1861 13.3219 23.6043 13.3219H27.5492V14.5283H23.6043C23.1459 14.5283 22.7156 14.4439 22.3135 14.275C21.9194 14.098 21.5695 13.8568 21.2639 13.5511C20.9663 13.2455 20.7331 12.8957 20.5642 12.5016C20.3953 12.0995 20.3109 11.6692 20.3109 11.2107C20.3109 10.7523 20.3953 10.3261 20.5642 9.93197C20.7331 9.52984 20.9663 9.17597 21.2639 8.87035C21.5695 8.56473 21.9194 8.32747 22.3135 8.15858C22.7156 7.98164 23.1459 7.89317 23.6043 7.89317H26.3428C26.7369 7.89317 27.0908 7.98968 27.4044 8.1827C27.7261 8.36768 27.9795 8.62103 28.1645 8.94273C28.3575 9.25639 28.454 9.61027 28.454 10.0044ZM26.3428 10.9091C26.5921 10.9091 26.8053 10.8207 26.9822 10.6437C27.1591 10.4668 27.2476 10.2537 27.2476 10.0044C27.2476 9.75503 27.1591 9.5419 26.9822 9.36497C26.8053 9.18803 26.5921 9.09956 26.3428 9.09956H23.6043C23.2504 9.09956 22.9247 9.17999 22.6271 9.34084C22.3376 9.50169 22.0963 9.71884 21.9033 9.99229C21.7103 10.2657 21.5896 10.5714 21.5414 10.9091H26.3428ZM36.4867 14.5283H32.5418C32.0834 14.5283 31.6531 14.4439 31.251 14.275C30.8569 14.098 30.507 13.8568 30.2014 13.5511C29.9038 13.2455 29.6706 12.8957 29.5017 12.5016C29.3328 12.0995 29.2484 11.6692 29.2484 11.2107C29.2484 10.7523 29.3328 10.3261 29.5017 9.93197C29.6706 9.52984 29.9038 9.17597 30.2014 8.87035C30.507 8.56473 30.8569 8.32747 31.251 8.15858C31.6531 7.98164 32.0834 7.89317 32.5418 7.89317H36.4867V9.09956H32.5418C32.1558 9.09956 31.8059 9.19607 31.4922 9.38909C31.1786 9.58212 30.9252 9.83948 30.7322 10.1612C30.5472 10.4748 30.4547 10.8247 30.4547 11.2107C30.4547 11.5968 30.5472 11.9507 30.7322 12.2724C30.9252 12.586 31.1786 12.8394 31.4922 13.0324C31.8059 13.2254 32.1558 13.3219 32.5418 13.3219H36.4867V14.5283ZM45.6597 14.5283H44.4533V11.2107C44.4533 10.8247 44.3608 10.4748 44.1759 10.1612C43.9909 9.83948 43.7375 9.58212 43.4158 9.38909C43.1022 9.19607 42.7523 9.09956 42.3663 9.09956H39.0487V14.5283H37.8423V5.48039H39.0487V7.89317H42.3663C42.8247 7.89317 43.251 7.98164 43.645 8.15858C44.0472 8.32747 44.397 8.56473 44.6946 8.87035C45.0002 9.17597 45.2375 9.52984 45.4064 9.93197C45.5753 10.3261 45.6597 10.7523 45.6597 11.2107V14.5283ZM55.3442 11.2107C55.3442 11.6692 55.2598 12.0995 55.0909 12.5016C54.922 12.8957 54.6847 13.2455 54.3791 13.5511C54.0815 13.8568 53.7317 14.098 53.3296 14.275C52.9355 14.4439 52.5092 14.5283 52.0508 14.5283H50.1929C49.7345 14.5283 49.3042 14.4439 48.9021 14.275C48.508 14.098 48.1582 13.8568 47.8525 13.5511C47.555 13.2455 47.3217 12.8957 47.1528 12.5016C46.9839 12.0995 46.8995 11.6692 46.8995 11.2107C46.8995 10.7523 46.9839 10.3261 47.1528 9.93197C47.3217 9.52984 47.555 9.17597 47.8525 8.87035C48.1582 8.56473 48.508 8.32747 48.9021 8.15858C49.3042 7.98164 49.7345 7.89317 50.1929 7.89317H52.0508C52.5092 7.89317 52.9355 7.98164 53.3296 8.15858C53.7317 8.32747 54.0815 8.56473 54.3791 8.87035C54.6847 9.17597 54.922 9.52984 55.0909 9.93197C55.2598 10.3261 55.3442 10.7523 55.3442 11.2107ZM54.1378 11.2107C54.1378 10.8247 54.0454 10.4748 53.8604 10.1612C53.6754 9.83948 53.4221 9.58212 53.1003 9.38909C52.7867 9.19607 52.4368 9.09956 52.0508 9.09956H50.1929C49.8069 9.09956 49.457 9.19607 49.1434 9.38909C48.8297 9.58212 48.5764 9.83948 48.3834 10.1612C48.1984 10.4748 48.1059 10.8247 48.1059 11.2107C48.1059 11.5968 48.1984 11.9507 48.3834 12.2724C48.5764 12.586 48.8297 12.8394 49.1434 13.0324C49.457 13.2254 49.8069 13.3219 50.1929 13.3219H52.0508C52.4368 13.3219 52.7867 13.2254 53.1003 13.0324C53.4221 12.8394 53.6754 12.586 53.8604 12.2724C54.0454 11.9507 54.1378 11.5968 54.1378 11.2107ZM57.9015 14.5283H56.6951V7.89317H63.0528C63.5112 7.89317 63.9375 7.98164 64.3316 8.15858C64.7337 8.32747 65.0836 8.56473 65.3811 8.87035C65.6868 9.17597 65.924 9.52984 66.0929 9.93197C66.2618 10.3261 66.3463 10.7523 66.3463 11.2107V14.5283H65.1399V11.2107C65.1399 10.8247 65.0474 10.4748 64.8624 10.1612C64.6774 9.83948 64.4241 9.58212 64.1024 9.38909C63.7887 9.19607 63.4389 9.09956 63.0528 9.09956H62.1239V14.5283H60.9175V9.09956H57.9015V14.5283ZM76.0231 11.2107C76.0231 11.6692 75.9387 12.0995 75.7698 12.5016C75.6009 12.8957 75.3636 13.2455 75.058 13.5511C74.7604 13.8568 74.4106 14.098 74.0085 14.275C73.6144 14.4439 73.1881 14.5283 72.7297 14.5283H70.8718C70.4134 14.5283 69.9831 14.4439 69.581 14.275C69.1869 14.098 68.8371 13.8568 68.5314 13.5511C68.2339 13.2455 68.0006 12.8957 67.8317 12.5016C67.6628 12.0995 67.5784 11.6692 67.5784 11.2107C67.5784 10.7523 67.6628 10.3261 67.8317 9.93197C68.0006 9.52984 68.2339 9.17597 68.5314 8.87035C68.8371 8.56473 69.1869 8.32747 69.581 8.15858C69.9831 7.98164 70.4134 7.89317 70.8718 7.89317H72.7297C73.1881 7.89317 73.6144 7.98164 74.0085 8.15858C74.4106 8.32747 74.7604 8.56473 75.058 8.87035C75.3636 9.17597 75.6009 9.52984 75.7698 9.93197C75.9387 10.3261 76.0231 10.7523 76.0231 11.2107ZM74.8167 11.2107C74.8167 10.8247 74.7243 10.4748 74.5393 10.1612C74.3543 9.83948 74.1009 9.58212 73.7792 9.38909C73.4656 9.19607 73.1157 9.09956 72.7297 9.09956H70.8718C70.4858 9.09956 70.1359 9.19607 69.8223 9.38909C69.5086 9.58212 69.2553 9.83948 69.0623 10.1612C68.8773 10.4748 68.7848 10.8247 68.7848 11.2107C68.7848 11.5968 68.8773 11.9507 69.0623 12.2724C69.2553 12.586 69.5086 12.8394 69.8223 13.0324C70.1359 13.2254 70.4858 13.3219 70.8718 13.3219H72.7297C73.1157 13.3219 73.4656 13.2254 73.7792 13.0324C74.1009 12.8394 74.3543 12.586 74.5393 12.2724C74.7243 11.9507 74.8167 11.5968 74.8167 11.2107ZM84.7692 14.5283H83.5628V9.09956H80.2452C79.8592 9.09956 79.5093 9.19607 79.1957 9.38909C78.882 9.57407 78.6287 9.82742 78.4357 10.1491C78.2507 10.4708 78.1582 10.8247 78.1582 11.2107C78.1582 11.5968 78.2507 11.9507 78.4357 12.2724C78.6287 12.586 78.882 12.8394 79.1957 13.0324C79.5093 13.2174 79.8592 13.3139 80.2452 13.3219H82.9596V14.5283H80.2452C79.7868 14.5283 79.3565 14.4439 78.9544 14.275C78.5603 14.098 78.2105 13.8568 77.9048 13.5511C77.6073 13.2455 77.374 12.8957 77.2051 12.5016C77.0362 12.0995 76.9518 11.6692 76.9518 11.2107C76.9518 10.7523 77.0362 10.3261 77.2051 9.93197C77.374 9.52984 77.6073 9.17597 77.9048 8.87035C78.2105 8.56473 78.5603 8.32747 78.9544 8.15858C79.3565 7.98164 79.7868 7.89317 80.2452 7.89317H83.5628V5.48039H84.7692V14.5283ZM94.2563 10.0044C94.2563 10.3904 94.1597 10.7443 93.9667 11.066C93.7817 11.3877 93.5284 11.645 93.2067 11.8381C92.893 12.023 92.5392 12.1155 92.1451 12.1155H87.5246C87.6935 12.4694 87.9428 12.7589 88.2726 12.9841C88.6103 13.2093 88.9884 13.3219 89.4066 13.3219H93.3515V14.5283H89.4066C88.9481 14.5283 88.5179 14.4439 88.1157 14.275C87.7216 14.098 87.3718 13.8568 87.0662 13.5511C86.7686 13.2455 86.5354 12.8957 86.3665 12.5016C86.1976 12.0995 86.1131 11.6692 86.1131 11.2107C86.1131 10.7523 86.1976 10.3261 86.3665 9.93197C86.5354 9.52984 86.7686 9.17597 87.0662 8.87035C87.3718 8.56473 87.7216 8.32747 88.1157 8.15858C88.5179 7.98164 88.9481 7.89317 89.4066 7.89317H92.1451C92.5392 7.89317 92.893 7.98968 93.2067 8.1827C93.5284 8.36768 93.7817 8.62103 93.9667 8.94273C94.1597 9.25639 94.2563 9.61027 94.2563 10.0044ZM92.1451 10.9091C92.3944 10.9091 92.6075 10.8207 92.7845 10.6437C92.9614 10.4668 93.0499 10.2537 93.0499 10.0044C93.0499 9.75503 92.9614 9.5419 92.7845 9.36497C92.6075 9.18803 92.3944 9.09956 92.1451 9.09956H89.4066C89.0527 9.09956 88.727 9.17999 88.4294 9.34084C88.1399 9.50169 87.8986 9.71884 87.7056 9.99229C87.5125 10.2657 87.3919 10.5714 87.3436 10.9091H92.1451Z"/>
</mask>
<path d="M28.454 10.0044C28.454 10.3904 28.3575 10.7443 28.1645 11.066C27.9795 11.3877 27.7261 11.645 27.4044 11.8381C27.0908 12.023 26.7369 12.1155 26.3428 12.1155H21.7223C21.8912 12.4694 22.1406 12.7589 22.4703 12.9841C22.8081 13.2093 23.1861 13.3219 23.6043 13.3219H27.5492V14.5283H23.6043C23.1459 14.5283 22.7156 14.4439 22.3135 14.275C21.9194 14.098 21.5695 13.8568 21.2639 13.5511C20.9663 13.2455 20.7331 12.8957 20.5642 12.5016C20.3953 12.0995 20.3109 11.6692 20.3109 11.2107C20.3109 10.7523 20.3953 10.3261 20.5642 9.93197C20.7331 9.52984 20.9663 9.17597 21.2639 8.87035C21.5695 8.56473 21.9194 8.32747 22.3135 8.15858C22.7156 7.98164 23.1459 7.89317 23.6043 7.89317H26.3428C26.7369 7.89317 27.0908 7.98968 27.4044 8.1827C27.7261 8.36768 27.9795 8.62103 28.1645 8.94273C28.3575 9.25639 28.454 9.61027 28.454 10.0044ZM26.3428 10.9091C26.5921 10.9091 26.8053 10.8207 26.9822 10.6437C27.1591 10.4668 27.2476 10.2537 27.2476 10.0044C27.2476 9.75503 27.1591 9.5419 26.9822 9.36497C26.8053 9.18803 26.5921 9.09956 26.3428 9.09956H23.6043C23.2504 9.09956 22.9247 9.17999 22.6271 9.34084C22.3376 9.50169 22.0963 9.71884 21.9033 9.99229C21.7103 10.2657 21.5896 10.5714 21.5414 10.9091H26.3428ZM36.4867 14.5283H32.5418C32.0834 14.5283 31.6531 14.4439 31.251 14.275C30.8569 14.098 30.507 13.8568 30.2014 13.5511C29.9038 13.2455 29.6706 12.8957 29.5017 12.5016C29.3328 12.0995 29.2484 11.6692 29.2484 11.2107C29.2484 10.7523 29.3328 10.3261 29.5017 9.93197C29.6706 9.52984 29.9038 9.17597 30.2014 8.87035C30.507 8.56473 30.8569 8.32747 31.251 8.15858C31.6531 7.98164 32.0834 7.89317 32.5418 7.89317H36.4867V9.09956H32.5418C32.1558 9.09956 31.8059 9.19607 31.4922 9.38909C31.1786 9.58212 30.9252 9.83948 30.7322 10.1612C30.5472 10.4748 30.4547 10.8247 30.4547 11.2107C30.4547 11.5968 30.5472 11.9507 30.7322 12.2724C30.9252 12.586 31.1786 12.8394 31.4922 13.0324C31.8059 13.2254 32.1558 13.3219 32.5418 13.3219H36.4867V14.5283ZM45.6597 14.5283H44.4533V11.2107C44.4533 10.8247 44.3608 10.4748 44.1759 10.1612C43.9909 9.83948 43.7375 9.58212 43.4158 9.38909C43.1022 9.19607 42.7523 9.09956 42.3663 9.09956H39.0487V14.5283H37.8423V5.48039H39.0487V7.89317H42.3663C42.8247 7.89317 43.251 7.98164 43.645 8.15858C44.0472 8.32747 44.397 8.56473 44.6946 8.87035C45.0002 9.17597 45.2375 9.52984 45.4064 9.93197C45.5753 10.3261 45.6597 10.7523 45.6597 11.2107V14.5283ZM55.3442 11.2107C55.3442 11.6692 55.2598 12.0995 55.0909 12.5016C54.922 12.8957 54.6847 13.2455 54.3791 13.5511C54.0815 13.8568 53.7317 14.098 53.3296 14.275C52.9355 14.4439 52.5092 14.5283 52.0508 14.5283H50.1929C49.7345 14.5283 49.3042 14.4439 48.9021 14.275C48.508 14.098 48.1582 13.8568 47.8525 13.5511C47.555 13.2455 47.3217 12.8957 47.1528 12.5016C46.9839 12.0995 46.8995 11.6692 46.8995 11.2107C46.8995 10.7523 46.9839 10.3261 47.1528 9.93197C47.3217 9.52984 47.555 9.17597 47.8525 8.87035C48.1582 8.56473 48.508 8.32747 48.9021 8.15858C49.3042 7.98164 49.7345 7.89317 50.1929 7.89317H52.0508C52.5092 7.89317 52.9355 7.98164 53.3296 8.15858C53.7317 8.32747 54.0815 8.56473 54.3791 8.87035C54.6847 9.17597 54.922 9.52984 55.0909 9.93197C55.2598 10.3261 55.3442 10.7523 55.3442 11.2107ZM54.1378 11.2107C54.1378 10.8247 54.0454 10.4748 53.8604 10.1612C53.6754 9.83948 53.4221 9.58212 53.1003 9.38909C52.7867 9.19607 52.4368 9.09956 52.0508 9.09956H50.1929C49.8069 9.09956 49.457 9.19607 49.1434 9.38909C48.8297 9.58212 48.5764 9.83948 48.3834 10.1612C48.1984 10.4748 48.1059 10.8247 48.1059 11.2107C48.1059 11.5968 48.1984 11.9507 48.3834 12.2724C48.5764 12.586 48.8297 12.8394 49.1434 13.0324C49.457 13.2254 49.8069 13.3219 50.1929 13.3219H52.0508C52.4368 13.3219 52.7867 13.2254 53.1003 13.0324C53.4221 12.8394 53.6754 12.586 53.8604 12.2724C54.0454 11.9507 54.1378 11.5968 54.1378 11.2107ZM57.9015 14.5283H56.6951V7.89317H63.0528C63.5112 7.89317 63.9375 7.98164 64.3316 8.15858C64.7337 8.32747 65.0836 8.56473 65.3811 8.87035C65.6868 9.17597 65.924 9.52984 66.0929 9.93197C66.2618 10.3261 66.3463 10.7523 66.3463 11.2107V14.5283H65.1399V11.2107C65.1399 10.8247 65.0474 10.4748 64.8624 10.1612C64.6774 9.83948 64.4241 9.58212 64.1024 9.38909C63.7887 9.19607 63.4389 9.09956 63.0528 9.09956H62.1239V14.5283H60.9175V9.09956H57.9015V14.5283ZM76.0231 11.2107C76.0231 11.6692 75.9387 12.0995 75.7698 12.5016C75.6009 12.8957 75.3636 13.2455 75.058 13.5511C74.7604 13.8568 74.4106 14.098 74.0085 14.275C73.6144 14.4439 73.1881 14.5283 72.7297 14.5283H70.8718C70.4134 14.5283 69.9831 14.4439 69.581 14.275C69.1869 14.098 68.8371 13.8568 68.5314 13.5511C68.2339 13.2455 68.0006 12.8957 67.8317 12.5016C67.6628 12.0995 67.5784 11.6692 67.5784 11.2107C67.5784 10.7523 67.6628 10.3261 67.8317 9.93197C68.0006 9.52984 68.2339 9.17597 68.5314 8.87035C68.8371 8.56473 69.1869 8.32747 69.581 8.15858C69.9831 7.98164 70.4134 7.89317 70.8718 7.89317H72.7297C73.1881 7.89317 73.6144 7.98164 74.0085 8.15858C74.4106 8.32747 74.7604 8.56473 75.058 8.87035C75.3636 9.17597 75.6009 9.52984 75.7698 9.93197C75.9387 10.3261 76.0231 10.7523 76.0231 11.2107ZM74.8167 11.2107C74.8167 10.8247 74.7243 10.4748 74.5393 10.1612C74.3543 9.83948 74.1009 9.58212 73.7792 9.38909C73.4656 9.19607 73.1157 9.09956 72.7297 9.09956H70.8718C70.4858 9.09956 70.1359 9.19607 69.8223 9.38909C69.5086 9.58212 69.2553 9.83948 69.0623 10.1612C68.8773 10.4748 68.7848 10.8247 68.7848 11.2107C68.7848 11.5968 68.8773 11.9507 69.0623 12.2724C69.2553 12.586 69.5086 12.8394 69.8223 13.0324C70.1359 13.2254 70.4858 13.3219 70.8718 13.3219H72.7297C73.1157 13.3219 73.4656 13.2254 73.7792 13.0324C74.1009 12.8394 74.3543 12.586 74.5393 12.2724C74.7243 11.9507 74.8167 11.5968 74.8167 11.2107ZM84.7692 14.5283H83.5628V9.09956H80.2452C79.8592 9.09956 79.5093 9.19607 79.1957 9.38909C78.882 9.57407 78.6287 9.82742 78.4357 10.1491C78.2507 10.4708 78.1582 10.8247 78.1582 11.2107C78.1582 11.5968 78.2507 11.9507 78.4357 12.2724C78.6287 12.586 78.882 12.8394 79.1957 13.0324C79.5093 13.2174 79.8592 13.3139 80.2452 13.3219H82.9596V14.5283H80.2452C79.7868 14.5283 79.3565 14.4439 78.9544 14.275C78.5603 14.098 78.2105 13.8568 77.9048 13.5511C77.6073 13.2455 77.374 12.8957 77.2051 12.5016C77.0362 12.0995 76.9518 11.6692 76.9518 11.2107C76.9518 10.7523 77.0362 10.3261 77.2051 9.93197C77.374 9.52984 77.6073 9.17597 77.9048 8.87035C78.2105 8.56473 78.5603 8.32747 78.9544 8.15858C79.3565 7.98164 79.7868 7.89317 80.2452 7.89317H83.5628V5.48039H84.7692V14.5283ZM94.2563 10.0044C94.2563 10.3904 94.1597 10.7443 93.9667 11.066C93.7817 11.3877 93.5284 11.645 93.2067 11.8381C92.893 12.023 92.5392 12.1155 92.1451 12.1155H87.5246C87.6935 12.4694 87.9428 12.7589 88.2726 12.9841C88.6103 13.2093 88.9884 13.3219 89.4066 13.3219H93.3515V14.5283H89.4066C88.9481 14.5283 88.5179 14.4439 88.1157 14.275C87.7216 14.098 87.3718 13.8568 87.0662 13.5511C86.7686 13.2455 86.5354 12.8957 86.3665 12.5016C86.1976 12.0995 86.1131 11.6692 86.1131 11.2107C86.1131 10.7523 86.1976 10.3261 86.3665 9.93197C86.5354 9.52984 86.7686 9.17597 87.0662 8.87035C87.3718 8.56473 87.7216 8.32747 88.1157 8.15858C88.5179 7.98164 88.9481 7.89317 89.4066 7.89317H92.1451C92.5392 7.89317 92.893 7.98968 93.2067 8.1827C93.5284 8.36768 93.7817 8.62103 93.9667 8.94273C94.1597 9.25639 94.2563 9.61027 94.2563 10.0044ZM92.1451 10.9091C92.3944 10.9091 92.6075 10.8207 92.7845 10.6437C92.9614 10.4668 93.0499 10.2537 93.0499 10.0044C93.0499 9.75503 92.9614 9.5419 92.7845 9.36497C92.6075 9.18803 92.3944 9.09956 92.1451 9.09956H89.4066C89.0527 9.09956 88.727 9.17999 88.4294 9.34084C88.1399 9.50169 87.8986 9.71884 87.7056 9.99229C87.5125 10.2657 87.3919 10.5714 87.3436 10.9091H92.1451Z" fill="#0b0f1a"/>
<path d="M28.1645 11.066L28.0849 11.0182L28.084 11.0197L28.1645 11.066ZM27.4044 11.8381L27.4516 11.918L27.4522 11.9176L27.4044 11.8381ZM21.7223 12.1155V12.0227H21.5752L21.6386 12.1555L21.7223 12.1155ZM22.4703 12.9841L22.418 13.0608L22.4188 13.0614L22.4703 12.9841ZM27.5492 13.3219H27.642V13.2291H27.5492V13.3219ZM27.5492 14.5283V14.6211H27.642V14.5283H27.5492ZM22.3135 14.275L22.2755 14.3597L22.2775 14.3605L22.3135 14.275ZM21.2639 13.5511L21.1974 13.6159L21.1983 13.6168L21.2639 13.5511ZM20.5642 12.5016L20.4786 12.5375L20.4789 12.5381L20.5642 12.5016ZM20.5642 9.93197L20.6495 9.96853L20.6498 9.96791L20.5642 9.93197ZM21.2639 8.87035L21.1983 8.80472L21.1974 8.80561L21.2639 8.87035ZM22.3135 8.15858L22.35 8.24388L22.3508 8.24352L22.3135 8.15858ZM27.4044 8.1827L27.3558 8.26177L27.3582 8.26315L27.4044 8.1827ZM28.1645 8.94273L28.084 8.98901L28.0854 8.99137L28.1645 8.94273ZM26.9822 10.6437L26.9166 10.5781V10.5781L26.9822 10.6437ZM26.9822 9.36497L27.0478 9.29935V9.29935L26.9822 9.36497ZM22.6271 9.34084L22.583 9.2592L22.5821 9.25972L22.6271 9.34084ZM21.9033 9.99229L21.9791 10.0458V10.0458L21.9033 9.99229ZM21.5414 10.9091L21.4495 10.896L21.4344 11.0019H21.5414V10.9091ZM28.454 10.0044H28.3612C28.3612 10.3741 28.269 10.7114 28.0849 11.0182L28.1645 11.066L28.244 11.1137C28.446 10.7772 28.5468 10.4067 28.5468 10.0044H28.454ZM28.1645 11.066L28.084 11.0197C27.907 11.3276 27.665 11.5735 27.3567 11.7585L27.4044 11.8381L27.4522 11.9176C27.7873 11.7166 28.052 11.4478 28.2449 11.1122L28.1645 11.066ZM27.4044 11.8381L27.3573 11.7581C27.0591 11.934 26.7217 12.0227 26.3428 12.0227V12.1155V12.2083C26.7521 12.2083 27.1225 12.1121 27.4516 11.918L27.4044 11.8381ZM26.3428 12.1155V12.0227H21.7223V12.1155V12.2083H26.3428V12.1155ZM21.7223 12.1155L21.6386 12.1555C21.8147 12.5244 22.075 12.8265 22.418 13.0608L22.4703 12.9841L22.5226 12.9075C22.2062 12.6914 21.9678 12.4144 21.8061 12.0756L21.7223 12.1155ZM22.4703 12.9841L22.4188 13.0614C22.7723 13.297 23.1684 13.4147 23.6043 13.4147V13.3219V13.2291C23.2038 13.2291 22.8438 13.1216 22.5218 12.9069L22.4703 12.9841ZM23.6043 13.3219V13.4147H27.5492V13.3219V13.2291H23.6043V13.3219ZM27.5492 13.3219H27.4564V14.5283H27.5492H27.642V13.3219H27.5492ZM27.5492 14.5283V14.4355H23.6043V14.5283V14.6211H27.5492V14.5283ZM23.6043 14.5283V14.4355C23.1576 14.4355 22.7396 14.3533 22.3494 14.1894L22.3135 14.275L22.2775 14.3605C22.6916 14.5345 23.1342 14.6211 23.6043 14.6211V14.5283ZM22.3135 14.275L22.3515 14.1903C21.9677 14.018 21.6272 13.7832 21.3295 13.4855L21.2639 13.5511L21.1983 13.6168C21.5119 13.9303 21.8711 14.1781 22.2755 14.3596L22.3135 14.275ZM21.2639 13.5511L21.3304 13.4864C21.0408 13.189 20.8139 12.8487 20.6495 12.465L20.5642 12.5016L20.4789 12.5381C20.6523 12.9426 20.8919 13.3021 21.1974 13.6159L21.2639 13.5511ZM20.5642 12.5016L20.6498 12.4656C20.4859 12.0755 20.4037 11.6575 20.4037 11.2107H20.3109H20.2181C20.2181 11.6809 20.3047 12.1234 20.4786 12.5375L20.5642 12.5016ZM20.3109 11.2107H20.4037C20.4037 10.764 20.4859 10.3503 20.6495 9.96853L20.5642 9.93197L20.4789 9.89542C20.3047 10.3018 20.2181 10.7406 20.2181 11.2107H20.3109ZM20.5642 9.93197L20.6498 9.96791C20.8143 9.57624 21.0411 9.23219 21.3304 8.93509L21.2639 8.87035L21.1974 8.80561C20.8916 9.11974 20.6519 9.48344 20.4786 9.89604L20.5642 9.93197ZM21.2639 8.87035L21.3295 8.93597C21.6269 8.63863 21.9669 8.40808 22.35 8.24387L22.3135 8.15858L22.2769 8.07328C21.8719 8.24686 21.5122 8.49083 21.1983 8.80473L21.2639 8.87035ZM22.3135 8.15858L22.3508 8.24352C22.7407 8.07199 23.1582 7.98597 23.6043 7.98597V7.89317V7.80037C23.1336 7.80037 22.6905 7.89129 22.2761 8.07364L22.3135 8.15858ZM23.6043 7.89317V7.98597H26.3428V7.89317V7.80037H23.6043V7.89317ZM26.3428 7.89317V7.98597C26.721 7.98597 27.0578 8.07835 27.3558 8.26174L27.4044 8.1827L27.4531 8.10367C27.1238 7.90101 26.7528 7.80037 26.3428 7.80037V7.89317ZM27.4044 8.1827L27.3582 8.26315C27.6657 8.43996 27.9072 8.6815 28.084 8.98899L28.1645 8.94273L28.2449 8.89647C28.0518 8.56055 27.7866 8.29541 27.4507 8.10226L27.4044 8.1827ZM28.1645 8.94273L28.0854 8.99137C28.2688 9.28937 28.3612 9.62619 28.3612 10.0044H28.454H28.5468C28.5468 9.59435 28.4462 9.22341 28.2435 8.89409L28.1645 8.94273ZM26.3428 10.9091V11.0019C26.6169 11.0019 26.8536 10.9036 27.0478 10.7094L26.9822 10.6437L26.9166 10.5781C26.757 10.7377 26.5674 10.8163 26.3428 10.8163V10.9091ZM26.9822 10.6437L27.0478 10.7094C27.2421 10.5151 27.3404 10.2784 27.3404 10.0044H27.2476H27.1548C27.1548 10.229 27.0762 10.4185 26.9166 10.5781L26.9822 10.6437ZM27.2476 10.0044H27.3404C27.3404 9.73032 27.2421 9.49362 27.0478 9.29935L26.9822 9.36497L26.9166 9.43059C27.0762 9.59019 27.1548 9.77975 27.1548 10.0044H27.2476ZM26.9822 9.36497L27.0478 9.29935C26.8536 9.10508 26.6169 9.00676 26.3428 9.00676V9.09956V9.19236C26.5674 9.19236 26.757 9.27098 26.9166 9.43059L26.9822 9.36497ZM26.3428 9.09956V9.00676H23.6043V9.09956V9.19236H26.3428V9.09956ZM23.6043 9.09956V9.00676C23.2358 9.00676 22.8948 9.09068 22.583 9.2592L22.6271 9.34084L22.6713 9.42248C22.9547 9.26929 23.2651 9.19236 23.6043 9.19236V9.09956ZM22.6271 9.34084L22.5821 9.25972C22.2802 9.42742 22.0285 9.65406 21.8275 9.93877L21.9033 9.99229L21.9791 10.0458C22.1642 9.78363 22.395 9.57596 22.6722 9.42196L22.6271 9.34084ZM21.9033 9.99229L21.8275 9.93877C21.6258 10.2245 21.4998 10.544 21.4495 10.896L21.5414 10.9091L21.6333 10.9223C21.6795 10.5987 21.7947 10.307 21.9791 10.0458L21.9033 9.99229ZM21.5414 10.9091V11.0019H26.3428V10.9091V10.8163H21.5414V10.9091ZM36.4867 14.5283V14.6211H36.5795V14.5283H36.4867ZM31.251 14.275L31.2129 14.3597L31.215 14.3605L31.251 14.275ZM30.2014 13.5511L30.1349 13.6159L30.1358 13.6168L30.2014 13.5511ZM29.5017 12.5016L29.4161 12.5375L29.4164 12.5381L29.5017 12.5016ZM29.5017 9.93197L29.587 9.96853L29.5873 9.96791L29.5017 9.93197ZM30.2014 8.87035L30.1358 8.80472L30.1349 8.80561L30.2014 8.87035ZM31.251 8.15858L31.2875 8.24388L31.2883 8.24352L31.251 8.15858ZM36.4867 7.89317H36.5795V7.80037H36.4867V7.89317ZM36.4867 9.09956V9.19236H36.5795V9.09956H36.4867ZM31.4922 9.38909L31.4436 9.31006V9.31006L31.4922 9.38909ZM30.7322 10.1612L30.6526 10.1134L30.6523 10.114L30.7322 10.1612ZM30.7322 12.2724L30.6517 12.3186L30.6532 12.321L30.7322 12.2724ZM31.4922 13.0324L31.4436 13.1114V13.1114L31.4922 13.0324ZM36.4867 13.3219H36.5795V13.2291H36.4867V13.3219ZM36.4867 14.5283V14.4355H32.5418V14.5283V14.6211H36.4867V14.5283ZM32.5418 14.5283V14.4355C32.0951 14.4355 31.6771 14.3533 31.2869 14.1894L31.251 14.275L31.215 14.3605C31.6291 14.5345 32.0717 14.6211 32.5418 14.6211V14.5283ZM31.251 14.275L31.289 14.1903C30.9052 14.018 30.5647 13.7832 30.267 13.4855L30.2014 13.5511L30.1358 13.6168C30.4494 13.9303 30.8086 14.1781 31.213 14.3596L31.251 14.275ZM30.2014 13.5511L30.2679 13.4864C29.9783 13.189 29.7514 12.8487 29.587 12.465L29.5017 12.5016L29.4164 12.5381C29.5898 12.9426 29.8294 13.3021 30.1349 13.6159L30.2014 13.5511ZM29.5017 12.5016L29.5873 12.4656C29.4234 12.0755 29.3412 11.6575 29.3412 11.2107H29.2484H29.1556C29.1556 11.6809 29.2422 12.1234 29.4161 12.5375L29.5017 12.5016ZM29.2484 11.2107H29.3412C29.3412 10.764 29.4234 10.3503 29.587 9.96853L29.5017 9.93197L29.4164 9.89542C29.2422 10.3018 29.1556 10.7406 29.1556 11.2107H29.2484ZM29.5017 9.93197L29.5873 9.96791C29.7518 9.57624 29.9786 9.23219 30.2679 8.93509L30.2014 8.87035L30.1349 8.80561C29.8291 9.11974 29.5894 9.48344 29.4161 9.89604L29.5017 9.93197ZM30.2014 8.87035L30.267 8.93597C30.5644 8.63863 30.9044 8.40808 31.2875 8.24387L31.251 8.15858L31.2144 8.07328C30.8094 8.24686 30.4497 8.49083 30.1358 8.80473L30.2014 8.87035ZM31.251 8.15858L31.2883 8.24352C31.6782 8.07199 32.0957 7.98597 32.5418 7.98597V7.89317V7.80037C32.0711 7.80037 31.628 7.89129 31.2136 8.07364L31.251 8.15858ZM32.5418 7.89317V7.98597H36.4867V7.89317V7.80037H32.5418V7.89317ZM36.4867 7.89317H36.3939V9.09956H36.4867H36.5795V7.89317H36.4867ZM36.4867 9.09956V9.00676H32.5418V9.09956V9.19236H36.4867V9.09956ZM32.5418 9.09956V9.00676C32.1395 9.00676 31.7726 9.10759 31.4436 9.31006L31.4922 9.38909L31.5409 9.46813C31.8392 9.28455 32.1721 9.19236 32.5418 9.19236V9.09956ZM31.4922 9.38909L31.4436 9.31006C31.117 9.51103 30.8532 9.77922 30.6526 10.1134L30.7322 10.1612L30.8118 10.2089C30.9973 9.89974 31.2401 9.6532 31.5409 9.46813L31.4922 9.38909ZM30.7322 10.1612L30.6523 10.114C30.4584 10.4429 30.3619 10.8092 30.3619 11.2107H30.4547H30.5475C30.5475 10.8402 30.6361 10.5068 30.8122 10.2083L30.7322 10.1612ZM30.4547 11.2107H30.3619C30.3619 11.6123 30.4584 11.9823 30.6518 12.3186L30.7322 12.2724L30.8127 12.2261C30.6361 11.9191 30.5475 11.5812 30.5475 11.2107H30.4547ZM30.7322 12.2724L30.6532 12.321C30.8538 12.647 31.1176 12.9108 31.4436 13.1114L31.4922 13.0324L31.5409 12.9534C31.2396 12.768 30.9967 12.525 30.8113 12.2237L30.7322 12.2724ZM31.4922 13.0324L31.4436 13.1114C31.7726 13.3139 32.1395 13.4147 32.5418 13.4147V13.3219V13.2291C32.1721 13.2291 31.8392 13.1369 31.5409 12.9534L31.4922 13.0324ZM32.5418 13.3219V13.4147H36.4867V13.3219V13.2291H32.5418V13.3219ZM36.4867 13.3219H36.3939V14.5283H36.4867H36.5795V13.3219H36.4867ZM45.6597 14.5283V14.6211H45.7525V14.5283H45.6597ZM44.4533 14.5283H44.3605V14.6211H44.4533V14.5283ZM44.1759 10.1612L44.0954 10.2074L44.0959 10.2083L44.1759 10.1612ZM43.4158 9.38909L43.3672 9.46813L43.3681 9.46867L43.4158 9.38909ZM39.0487 9.09956V9.00676H38.9559V9.09956H39.0487ZM39.0487 14.5283V14.6211H39.1415V14.5283H39.0487ZM37.8423 14.5283H37.7495V14.6211H37.8423V14.5283ZM37.8423 5.48039V5.38759H37.7495V5.48039H37.8423ZM39.0487 5.48039H39.1415V5.38759H39.0487V5.48039ZM39.0487 7.89317H38.9559V7.98597H39.0487V7.89317ZM43.6451 8.15858L43.607 8.24326L43.6091 8.24414L43.6451 8.15858ZM44.6946 8.87035L44.6281 8.93509L44.629 8.93597L44.6946 8.87035ZM45.4064 9.93197L45.3208 9.96791L45.3211 9.96853L45.4064 9.93197ZM45.6597 14.5283V14.4355H44.4533V14.5283V14.6211H45.6597V14.5283ZM44.4533 14.5283H44.5461V11.2107H44.4533H44.3605V14.5283H44.4533ZM44.4533 11.2107H44.5461C44.5461 10.8092 44.4497 10.4429 44.2558 10.114L44.1759 10.1612L44.0959 10.2083C44.272 10.5068 44.3605 10.8402 44.3605 11.2107H44.4533ZM44.1759 10.1612L44.2563 10.1149C44.0634 9.77936 43.7987 9.51059 43.4636 9.30952L43.4158 9.38909L43.3681 9.46867C43.6764 9.65365 43.9184 9.89961 44.0954 10.2074L44.1759 10.1612ZM43.4158 9.38909L43.4645 9.31006C43.1355 9.10759 42.7686 9.00676 42.3663 9.00676V9.09956V9.19236C42.736 9.19236 43.0689 9.28455 43.3672 9.46813L43.4158 9.38909ZM42.3663 9.09956V9.00676H39.0487V9.09956V9.19236H42.3663V9.09956ZM39.0487 9.09956H38.9559V14.5283H39.0487H39.1415V9.09956H39.0487ZM39.0487 14.5283V14.4355H37.8423V14.5283V14.6211H39.0487V14.5283ZM37.8423 14.5283H37.9351V5.48039H37.8423H37.7495V14.5283H37.8423ZM37.8423 5.48039V5.57319H39.0487V5.48039V5.38759H37.8423V5.48039ZM39.0487 5.48039H38.9559V7.89317H39.0487H39.1415V5.48039H39.0487ZM39.0487 7.89317V7.98597H42.3663V7.89317V7.80037H39.0487V7.89317ZM42.3663 7.89317V7.98597C42.8124 7.98597 43.2256 8.07199 43.607 8.24323L43.6451 8.15858L43.6831 8.07392C43.2763 7.89129 42.837 7.80037 42.3663 7.80037V7.89317ZM43.6451 8.15858L43.6091 8.24414C44 8.40832 44.3394 8.63859 44.6281 8.93509L44.6946 8.87035L44.7611 8.80561C44.4546 8.49087 44.0943 8.24662 43.681 8.07302L43.6451 8.15858ZM44.6946 8.87035L44.629 8.93597C44.926 9.233 45.1565 9.57677 45.3208 9.96791L45.4064 9.93197L45.4919 9.89604C45.3184 9.48292 45.0744 9.11893 44.7602 8.80473L44.6946 8.87035ZM45.4064 9.93197L45.3211 9.96853C45.4847 10.3503 45.5669 10.764 45.5669 11.2107H45.6597H45.7525C45.7525 10.7406 45.6659 10.3018 45.4917 9.89542L45.4064 9.93197ZM45.6597 11.2107H45.5669V14.5283H45.6597H45.7525V11.2107H45.6597ZM55.0909 12.5016L55.1762 12.5381L55.1765 12.5375L55.0909 12.5016ZM54.3791 13.5511L54.3135 13.4855L54.3126 13.4864L54.3791 13.5511ZM53.3296 14.275L53.3661 14.3603L53.3669 14.3599L53.3296 14.275ZM48.9021 14.275L48.8641 14.3597L48.8662 14.3605L48.9021 14.275ZM47.8525 13.5511L47.7861 13.6159L47.7869 13.6168L47.8525 13.5511ZM47.1528 12.5016L47.0673 12.5375L47.0675 12.5381L47.1528 12.5016ZM47.1528 9.93197L47.2381 9.96853L47.2384 9.96791L47.1528 9.93197ZM47.8525 8.87035L47.7869 8.80472L47.7861 8.80561L47.8525 8.87035ZM48.9021 8.15858L48.9387 8.24388L48.9395 8.24352L48.9021 8.15858ZM53.3296 8.15858L53.2915 8.24326L53.2936 8.24414L53.3296 8.15858ZM54.3791 8.87035L54.3126 8.93509L54.3135 8.93597L54.3791 8.87035ZM55.0909 9.93197L55.0053 9.96791L55.0056 9.96853L55.0909 9.93197ZM53.8604 10.1612L53.7799 10.2074L53.7804 10.2083L53.8604 10.1612ZM53.1003 9.38909L53.0517 9.46813L53.0526 9.46867L53.1003 9.38909ZM49.1434 9.38909L49.0947 9.31006V9.31006L49.1434 9.38909ZM48.3834 10.1612L48.3038 10.1134L48.3034 10.114L48.3834 10.1612ZM48.3834 12.2724L48.3029 12.3186L48.3043 12.321L48.3834 12.2724ZM49.1434 13.0324L49.0947 13.1114V13.1114L49.1434 13.0324ZM53.1003 13.0324L53.0526 12.9528L53.0517 12.9534L53.1003 13.0324ZM53.8604 12.2724L53.9403 12.3195L53.9408 12.3186L53.8604 12.2724ZM55.3442 11.2107H55.2514C55.2514 11.6575 55.1692 12.0755 55.0053 12.4656L55.0909 12.5016L55.1765 12.5375C55.3504 12.1234 55.437 11.6809 55.437 11.2107H55.3442ZM55.0909 12.5016L55.0056 12.465C54.8414 12.8482 54.6108 13.1882 54.3135 13.4855L54.3791 13.5511L54.4447 13.6168C54.7586 13.3029 55.0026 12.9432 55.1762 12.5381L55.0909 12.5016ZM54.3791 13.5511L54.3126 13.4864C54.0236 13.7832 53.6837 14.0178 53.2922 14.19L53.3296 14.275L53.3669 14.3599C53.7796 14.1783 54.1395 13.9303 54.4456 13.6159L54.3791 13.5511ZM53.3296 14.275L53.293 14.1897C52.9113 14.3533 52.4975 14.4355 52.0508 14.4355V14.5283V14.6211C52.5209 14.6211 52.9597 14.5345 53.3661 14.3603L53.3296 14.275ZM52.0508 14.5283V14.4355H50.1929V14.5283V14.6211H52.0508V14.5283ZM50.1929 14.5283V14.4355C49.7462 14.4355 49.3282 14.3533 48.938 14.1894L48.9021 14.275L48.8662 14.3605C49.2803 14.5345 49.7228 14.6211 50.1929 14.6211V14.5283ZM48.9021 14.275L48.9401 14.1903C48.5563 14.018 48.2158 13.7832 47.9182 13.4855L47.8525 13.5511L47.7869 13.6168C48.1005 13.9303 48.4597 14.1781 48.8641 14.3596L48.9021 14.275ZM47.8525 13.5511L47.919 13.4864C47.6294 13.189 47.4026 12.8487 47.2381 12.465L47.1528 12.5016L47.0675 12.5381C47.2409 12.9426 47.4805 13.3021 47.7861 13.6159L47.8525 13.5511ZM47.1528 12.5016L47.2384 12.4656C47.0745 12.0755 46.9923 11.6575 46.9923 11.2107H46.8995H46.8067C46.8067 11.6809 46.8934 12.1234 47.0673 12.5375L47.1528 12.5016ZM46.8995 11.2107H46.9923C46.9923 10.764 47.0745 10.3503 47.2381 9.96853L47.1528 9.93197L47.0675 9.89542C46.8934 10.3018 46.8067 10.7406 46.8067 11.2107H46.8995ZM47.1528 9.93197L47.2384 9.96791C47.4029 9.57624 47.6297 9.23219 47.919 8.93509L47.8525 8.87035L47.7861 8.80561C47.4802 9.11974 47.2406 9.48344 47.0673 9.89604L47.1528 9.93197ZM47.8525 8.87035L47.9182 8.93597C48.2155 8.63863 48.5555 8.40808 48.9387 8.24387L48.9021 8.15858L48.8656 8.07328C48.4605 8.24686 48.1008 8.49083 47.7869 8.80473L47.8525 8.87035ZM48.9021 8.15858L48.9395 8.24352C49.3293 8.07199 49.7468 7.98597 50.1929 7.98597V7.89317V7.80037C49.7222 7.80037 49.2792 7.89129 48.8647 8.07364L48.9021 8.15858ZM50.1929 7.89317V7.98597H52.0508V7.89317V7.80037H50.1929V7.89317ZM52.0508 7.89317V7.98597C52.4969 7.98597 52.9101 8.07199 53.2915 8.24323L53.3296 8.15858L53.3676 8.07392C52.9608 7.89129 52.5215 7.80037 52.0508 7.80037V7.89317ZM53.3296 8.15858L53.2936 8.24414C53.6845 8.40832 54.0239 8.63859 54.3126 8.93509L54.3791 8.87035L54.4456 8.80561C54.1391 8.49087 53.7788 8.24662 53.3655 8.07302L53.3296 8.15858ZM54.3791 8.87035L54.3135 8.93597C54.6105 9.233 54.8411 9.57677 55.0053 9.96791L55.0909 9.93197L55.1765 9.89604C55.0029 9.48292 54.7589 9.11893 54.4447 8.80473L54.3791 8.87035ZM55.0909 9.93197L55.0056 9.96853C55.1692 10.3503 55.2514 10.764 55.2514 11.2107H55.3442H55.437C55.437 10.7406 55.3504 10.3018 55.1762 9.89542L55.0909 9.93197ZM54.1378 11.2107H54.2306C54.2306 10.8092 54.1342 10.4429 53.9403 10.114L53.8604 10.1612L53.7804 10.2083C53.9565 10.5068 54.045 10.8402 54.045 11.2107H54.1378ZM53.8604 10.1612L53.9408 10.1149C53.7479 9.77936 53.4832 9.51059 53.1481 9.30952L53.1003 9.38909L53.0526 9.46867C53.3609 9.65365 53.6029 9.89961 53.7799 10.2074L53.8604 10.1612ZM53.1003 9.38909L53.149 9.31006C52.82 9.10759 52.4531 9.00676 52.0508 9.00676V9.09956V9.19236C52.4205 9.19236 52.7534 9.28455 53.0517 9.46813L53.1003 9.38909ZM52.0508 9.09956V9.00676H50.1929V9.09956V9.19236H52.0508V9.09956ZM50.1929 9.09956V9.00676C49.7906 9.00676 49.4238 9.10759 49.0947 9.31006L49.1434 9.38909L49.192 9.46813C49.4903 9.28455 49.8232 9.19236 50.1929 9.19236V9.09956ZM49.1434 9.38909L49.0947 9.31006C48.7682 9.51103 48.5043 9.77922 48.3038 10.1134L48.3834 10.1612L48.4629 10.2089C48.6484 9.89974 48.8913 9.6532 49.192 9.46813L49.1434 9.38909ZM48.3834 10.1612L48.3034 10.114C48.1095 10.4429 48.0131 10.8092 48.0131 11.2107H48.1059H48.1987C48.1987 10.8402 48.2872 10.5068 48.4633 10.2083L48.3834 10.1612ZM48.1059 11.2107H48.0131C48.0131 11.6123 48.1095 11.9823 48.3029 12.3186L48.3834 12.2724L48.4638 12.2261C48.2873 11.9191 48.1987 11.5812 48.1987 11.2107H48.1059ZM48.3834 12.2724L48.3043 12.321C48.505 12.647 48.7687 12.9108 49.0947 13.1114L49.1434 13.0324L49.192 12.9534C48.8907 12.768 48.6478 12.525 48.4624 12.2237L48.3834 12.2724ZM49.1434 13.0324L49.0947 13.1114C49.4238 13.3139 49.7906 13.4147 50.1929 13.4147V13.3219V13.2291C49.8232 13.2291 49.4903 13.1369 49.192 12.9534L49.1434 13.0324ZM50.1929 13.3219V13.4147H52.0508V13.3219V13.2291H50.1929V13.3219ZM52.0508 13.3219V13.4147C52.4531 13.4147 52.82 13.3139 53.149 13.1114L53.1003 13.0324L53.0517 12.9534C52.7534 13.1369 52.4205 13.2291 52.0508 13.2291V13.3219ZM53.1003 13.0324L53.1481 13.112C53.4826 12.9112 53.7472 12.6469 53.9403 12.3195L53.8604 12.2724L53.7804 12.2252C53.6036 12.5252 53.3615 12.7675 53.0526 12.9528L53.1003 13.0324ZM53.8604 12.2724L53.9408 12.3186C54.1342 11.9823 54.2306 11.6123 54.2306 11.2107H54.1378H54.045C54.045 11.5812 53.9565 11.9191 53.7799 12.2261L53.8604 12.2724ZM57.9015 14.5283V14.6211H57.9943V14.5283H57.9015ZM56.6951 14.5283H56.6023V14.6211H56.6951V14.5283ZM56.6951 7.89317V7.80037H56.6023V7.89317H56.6951ZM64.3316 8.15858L64.2936 8.24326L64.2956 8.24414L64.3316 8.15858ZM65.3811 8.87035L65.3146 8.93509L65.3155 8.93597L65.3811 8.87035ZM66.0929 9.93197L66.0074 9.96791L66.0076 9.96853L66.0929 9.93197ZM66.3463 14.5283V14.6211H66.4391V14.5283H66.3463ZM65.1399 14.5283H65.0471V14.6211H65.1399V14.5283ZM64.8624 10.1612L64.7819 10.2074L64.7825 10.2083L64.8624 10.1612ZM64.1024 9.38909L64.0537 9.46813L64.0546 9.46867L64.1024 9.38909ZM62.1239 9.09956V9.00676H62.0311V9.09956H62.1239ZM62.1239 14.5283V14.6211H62.2167V14.5283H62.1239ZM60.9175 14.5283H60.8247V14.6211H60.9175V14.5283ZM60.9175 9.09956H61.0103V9.00676H60.9175V9.09956ZM57.9015 9.09956V9.00676H57.8087V9.09956H57.9015ZM57.9015 14.5283V14.4355H56.6951V14.5283V14.6211H57.9015V14.5283ZM56.6951 14.5283H56.7879V7.89317H56.6951H56.6023V14.5283H56.6951ZM56.6951 7.89317V7.98597H63.0528V7.89317V7.80037H56.6951V7.89317ZM63.0528 7.89317V7.98597C63.499 7.98597 63.9122 8.07199 64.2936 8.24323L64.3316 8.15858L64.3696 8.07392C63.9628 7.89129 63.5235 7.80037 63.0528 7.80037V7.89317ZM64.3316 8.15858L64.2956 8.24414C64.6866 8.40832 65.026 8.63859 65.3147 8.93509L65.3811 8.87035L65.4476 8.80561C65.1412 8.49087 64.7809 8.24662 64.3675 8.07302L64.3316 8.15858ZM65.3811 8.87035L65.3155 8.93597C65.6126 9.233 65.8431 9.57677 66.0074 9.96791L66.0929 9.93197L66.1785 9.89604C66.005 9.48292 65.761 9.11893 65.4468 8.80473L65.3811 8.87035ZM66.0929 9.93197L66.0076 9.96853C66.1712 10.3503 66.2535 10.764 66.2535 11.2107H66.3463H66.4391C66.4391 10.7406 66.3524 10.3018 66.1782 9.89542L66.0929 9.93197ZM66.3463 11.2107H66.2535V14.5283H66.3463H66.4391V11.2107H66.3463ZM66.3463 14.5283V14.4355H65.1399V14.5283V14.6211H66.3463V14.5283ZM65.1399 14.5283H65.2327V11.2107H65.1399H65.0471V14.5283H65.1399ZM65.1399 11.2107H65.2327C65.2327 10.8092 65.1362 10.4429 64.9423 10.114L64.8624 10.1612L64.7825 10.2083C64.9585 10.5068 65.0471 10.8402 65.0471 11.2107H65.1399ZM64.8624 10.1612L64.9428 10.1149C64.7499 9.77936 64.4852 9.51059 64.1501 9.30952L64.1024 9.38909L64.0546 9.46867C64.3629 9.65365 64.6049 9.89961 64.7819 10.2074L64.8624 10.1612ZM64.1024 9.38909L64.151 9.31006C63.822 9.10759 63.4552 9.00676 63.0528 9.00676V9.09956V9.19236C63.4225 9.19236 63.7554 9.28455 64.0537 9.46813L64.1024 9.38909ZM63.0528 9.09956V9.00676H62.1239V9.09956V9.19236H63.0528V9.09956ZM62.1239 9.09956H62.0311V14.5283H62.1239H62.2167V9.09956H62.1239ZM62.1239 14.5283V14.4355H60.9175V14.5283V14.6211H62.1239V14.5283ZM60.9175 14.5283H61.0103V9.09956H60.9175H60.8247V14.5283H60.9175ZM60.9175 9.09956V9.00676H57.9015V9.09956V9.19236H60.9175V9.09956ZM57.9015 9.09956H57.8087V14.5283H57.9015H57.9943V9.09956H57.9015ZM75.7698 12.5016L75.8551 12.5381L75.8553 12.5375L75.7698 12.5016ZM75.058 13.5511L74.9924 13.4855L74.9915 13.4864L75.058 13.5511ZM74.0085 14.275L74.045 14.3603L74.0458 14.3599L74.0085 14.275ZM69.581 14.275L69.543 14.3597L69.5451 14.3605L69.581 14.275ZM68.5314 13.5511L68.465 13.6159L68.4658 13.6168L68.5314 13.5511ZM67.8317 12.5016L67.7462 12.5375L67.7464 12.5381L67.8317 12.5016ZM67.8317 9.93197L67.917 9.96853L67.9173 9.96791L67.8317 9.93197ZM68.5314 8.87035L68.4658 8.80472L68.465 8.80561L68.5314 8.87035ZM69.581 8.15858L69.6176 8.24388L69.6184 8.24352L69.581 8.15858ZM74.0085 8.15858L73.9704 8.24326L73.9725 8.24414L74.0085 8.15858ZM75.058 8.87035L74.9915 8.93509L74.9924 8.93597L75.058 8.87035ZM75.7698 9.93197L75.6842 9.96791L75.6845 9.96853L75.7698 9.93197ZM74.5393 10.1612L74.4588 10.2074L74.4593 10.2083L74.5393 10.1612ZM73.7792 9.38909L73.7306 9.46813L73.7315 9.46867L73.7792 9.38909ZM69.8223 9.38909L69.7736 9.31006V9.31006L69.8223 9.38909ZM69.0623 10.1612L68.9827 10.1134L68.9823 10.114L69.0623 10.1612ZM69.0623 12.2724L68.9818 12.3186L68.9832 12.321L69.0623 12.2724ZM69.8223 13.0324L69.7736 13.1114V13.1114L69.8223 13.0324ZM73.7792 13.0324L73.7315 12.9528L73.7306 12.9534L73.7792 13.0324ZM74.5393 12.2724L74.6192 12.3195L74.6197 12.3186L74.5393 12.2724ZM76.0231 11.2107H75.9303C75.9303 11.6575 75.8481 12.0755 75.6842 12.4656L75.7698 12.5016L75.8553 12.5375C76.0293 12.1234 76.1159 11.6809 76.1159 11.2107H76.0231ZM75.7698 12.5016L75.6845 12.465C75.5203 12.8482 75.2897 13.1882 74.9924 13.4855L75.058 13.5511L75.1236 13.6168C75.4375 13.3029 75.6815 12.9432 75.8551 12.5381L75.7698 12.5016ZM75.058 13.5511L74.9915 13.4864C74.7025 13.7832 74.3626 14.0178 73.9711 14.19L74.0085 14.275L74.0458 14.3599C74.4585 14.1783 74.8184 13.9303 75.1245 13.6159L75.058 13.5511ZM74.0085 14.275L73.9719 14.1897C73.5901 14.3533 73.1764 14.4355 72.7297 14.4355V14.5283V14.6211C73.1998 14.6211 73.6386 14.5345 74.045 14.3603L74.0085 14.275ZM72.7297 14.5283V14.4355H70.8718V14.5283V14.6211H72.7297V14.5283ZM70.8718 14.5283V14.4355C70.4251 14.4355 70.0071 14.3533 69.6169 14.1894L69.581 14.275L69.5451 14.3605C69.9592 14.5345 70.4017 14.6211 70.8718 14.6211V14.5283ZM69.581 14.275L69.619 14.1903C69.2352 14.018 68.8947 13.7832 68.5971 13.4855L68.5314 13.5511L68.4658 13.6168C68.7794 13.9303 69.1386 14.1781 69.543 14.3596L69.581 14.275ZM68.5314 13.5511L68.5979 13.4864C68.3083 13.189 68.0815 12.8487 67.917 12.465L67.8317 12.5016L67.7464 12.5381C67.9198 12.9426 68.1594 13.3021 68.465 13.6159L68.5314 13.5511ZM67.8317 12.5016L67.9173 12.4656C67.7534 12.0755 67.6712 11.6575 67.6712 11.2107H67.5784H67.4856C67.4856 11.6809 67.5723 12.1234 67.7462 12.5375L67.8317 12.5016ZM67.5784 11.2107H67.6712C67.6712 10.764 67.7534 10.3503 67.917 9.96853L67.8317 9.93197L67.7464 9.89542C67.5723 10.3018 67.4856 10.7406 67.4856 11.2107H67.5784ZM67.8317 9.93197L67.9173 9.96791C68.0818 9.57624 68.3086 9.23219 68.5979 8.93509L68.5314 8.87035L68.465 8.80561C68.1591 9.11974 67.9195 9.48344 67.7462 9.89604L67.8317 9.93197ZM68.5314 8.87035L68.5971 8.93597C68.8944 8.63863 69.2344 8.40808 69.6176 8.24387L69.581 8.15858L69.5444 8.07328C69.1394 8.24686 68.7797 8.49083 68.4658 8.80473L68.5314 8.87035ZM69.581 8.15858L69.6184 8.24352C70.0082 8.07199 70.4257 7.98597 70.8718 7.98597V7.89317V7.80037C70.4011 7.80037 69.958 7.89129 69.5436 8.07364L69.581 8.15858ZM70.8718 7.89317V7.98597H72.7297V7.89317V7.80037H70.8718V7.89317ZM72.7297 7.89317V7.98597C73.1758 7.98597 73.589 8.07199 73.9705 8.24323L74.0085 8.15858L74.0465 8.07392C73.6397 7.89129 73.2004 7.80037 72.7297 7.80037V7.89317ZM74.0085 8.15858L73.9725 8.24414C74.3634 8.40832 74.7028 8.63859 74.9915 8.93509L75.058 8.87035L75.1245 8.80561C74.818 8.49087 74.4577 8.24662 74.0444 8.07302L74.0085 8.15858ZM75.058 8.87035L74.9924 8.93597C75.2894 9.233 75.52 9.57677 75.6842 9.96791L75.7698 9.93197L75.8553 9.89604C75.6818 9.48292 75.4378 9.11893 75.1236 8.80473L75.058 8.87035ZM75.7698 9.93197L75.6845 9.96853C75.8481 10.3503 75.9303 10.764 75.9303 11.2107H76.0231H76.1159C76.1159 10.7406 76.0293 10.3018 75.8551 9.89542L75.7698 9.93197ZM74.8167 11.2107H74.9095C74.9095 10.8092 74.8131 10.4429 74.6192 10.114L74.5393 10.1612L74.4593 10.2083C74.6354 10.5068 74.7239 10.8402 74.7239 11.2107H74.8167ZM74.5393 10.1612L74.6197 10.1149C74.4268 9.77936 74.1621 9.51059 73.827 9.30952L73.7792 9.38909L73.7315 9.46867C74.0398 9.65365 74.2818 9.89961 74.4588 10.2074L74.5393 10.1612ZM73.7792 9.38909L73.8279 9.31006C73.4989 9.10759 73.132 9.00676 72.7297 9.00676V9.09956V9.19236C73.0994 9.19236 73.4323 9.28455 73.7306 9.46813L73.7792 9.38909ZM72.7297 9.09956V9.00676H70.8718V9.09956V9.19236H72.7297V9.09956ZM70.8718 9.09956V9.00676C70.4695 9.00676 70.1027 9.10759 69.7736 9.31006L69.8223 9.38909L69.8709 9.46813C70.1692 9.28455 70.5021 9.19236 70.8718 9.19236V9.09956ZM69.8223 9.38909L69.7736 9.31006C69.4471 9.51103 69.1832 9.77922 68.9827 10.1134L69.0623 10.1612L69.1418 10.2089C69.3273 9.89974 69.5702 9.6532 69.8709 9.46813L69.8223 9.38909ZM69.0623 10.1612L68.9823 10.114C68.7884 10.4429 68.692 10.8092 68.692 11.2107H68.7848H68.8776C68.8776 10.8402 68.9661 10.5068 69.1422 10.2083L69.0623 10.1612ZM68.7848 11.2107H68.692C68.692 11.6123 68.7884 11.9823 68.9818 12.3186L69.0623 12.2724L69.1427 12.2261C68.9661 11.9191 68.8776 11.5812 68.8776 11.2107H68.7848ZM69.0623 12.2724L68.9832 12.321C69.1839 12.647 69.4476 12.9108 69.7736 13.1114L69.8223 13.0324L69.8709 12.9534C69.5696 12.768 69.3267 12.525 69.1413 12.2237L69.0623 12.2724ZM69.8223 13.0324L69.7736 13.1114C70.1027 13.3139 70.4695 13.4147 70.8718 13.4147V13.3219V13.2291C70.5021 13.2291 70.1692 13.1369 69.8709 12.9534L69.8223 13.0324ZM70.8718 13.3219V13.4147H72.7297V13.3219V13.2291H70.8718V13.3219ZM72.7297 13.3219V13.4147C73.132 13.4147 73.4989 13.3139 73.8279 13.1114L73.7792 13.0324L73.7306 12.9534C73.4323 13.1369 73.0994 13.2291 72.7297 13.2291V13.3219ZM73.7792 13.0324L73.827 13.112C74.1615 12.9112 74.4261 12.6469 74.6192 12.3195L74.5393 12.2724L74.4593 12.2252C74.2825 12.5252 74.0404 12.7675 73.7315 12.9528L73.7792 13.0324ZM74.5393 12.2724L74.6197 12.3186C74.8131 11.9823 74.9095 11.6123 74.9095 11.2107H74.8167H74.7239C74.7239 11.5812 74.6354 11.9191 74.4588 12.2261L74.5393 12.2724ZM84.7692 14.5283V14.6211H84.862V14.5283H84.7692ZM83.5628 14.5283H83.47V14.6211H83.5628V14.5283ZM83.5628 9.09956H83.6556V9.00676H83.5628V9.09956ZM79.1957 9.38909L79.2428 9.46904L79.2443 9.46813L79.1957 9.38909ZM78.4356 10.1491L78.3561 10.1014L78.3552 10.1029L78.4356 10.1491ZM78.4356 12.2724L78.3552 12.3186L78.3566 12.321L78.4356 12.2724ZM79.1957 13.0324L79.147 13.1114L79.1485 13.1123L79.1957 13.0324ZM80.2452 13.3219L80.2433 13.4147H80.2452V13.3219ZM82.9596 13.3219H83.0524V13.2291H82.9596V13.3219ZM82.9596 14.5283V14.6211H83.0524V14.5283H82.9596ZM78.9544 14.275L78.9164 14.3597L78.9185 14.3605L78.9544 14.275ZM77.9048 13.5511L77.8383 13.6159L77.8392 13.6168L77.9048 13.5511ZM77.2051 12.5016L77.1196 12.5375L77.1198 12.5381L77.2051 12.5016ZM77.2051 9.93197L77.2904 9.96853L77.2907 9.96791L77.2051 9.93197ZM77.9048 8.87035L77.8392 8.80472L77.8383 8.80561L77.9048 8.87035ZM78.9544 8.15858L78.991 8.24388L78.9918 8.24352L78.9544 8.15858ZM83.5628 7.89317V7.98597H83.6556V7.89317H83.5628ZM83.5628 5.48039V5.38759H83.47V5.48039H83.5628ZM84.7692 5.48039H84.862V5.38759H84.7692V5.48039ZM84.7692 14.5283V14.4355H83.5628V14.5283V14.6211H84.7692V14.5283ZM83.5628 14.5283H83.6556V9.09956H83.5628H83.47V14.5283H83.5628ZM83.5628 9.09956V9.00676H80.2452V9.09956V9.19236H83.5628V9.09956ZM80.2452 9.09956V9.00676C79.8429 9.00676 79.476 9.10759 79.147 9.31006L79.1957 9.38909L79.2443 9.46813C79.5426 9.28455 79.8755 9.19236 80.2452 9.19236V9.09956ZM79.1957 9.38909L79.1485 9.30916C78.8211 9.50224 78.5568 9.76682 78.3561 10.1014L78.4356 10.1491L78.5152 10.1969C78.7005 9.88801 78.9429 9.64591 79.2428 9.46903L79.1957 9.38909ZM78.4356 10.1491L78.3552 10.1029C78.1618 10.4392 78.0654 10.8091 78.0654 11.2107H78.1582H78.251C78.251 10.8403 78.3395 10.5024 78.5161 10.1954L78.4356 10.1491ZM78.1582 11.2107H78.0654C78.0654 11.6123 78.1618 11.9823 78.3552 12.3186L78.4356 12.2724L78.5161 12.2261C78.3395 11.9191 78.251 11.5812 78.251 11.2107H78.1582ZM78.4356 12.2724L78.3566 12.321C78.5573 12.647 78.821 12.9108 79.147 13.1114L79.1957 13.0324L79.2443 12.9534C78.943 12.768 78.7001 12.525 78.5147 12.2237L78.4356 12.2724ZM79.1957 13.0324L79.1485 13.1123C79.4767 13.3059 79.8423 13.4064 80.2433 13.4147L80.2452 13.3219L80.2472 13.2292C79.8761 13.2214 79.5419 13.1289 79.2428 12.9525L79.1957 13.0324ZM80.2452 13.3219V13.4147H82.9596V13.3219V13.2291H80.2452V13.3219ZM82.9596 13.3219H82.8668V14.5283H82.9596H83.0524V13.3219H82.9596ZM82.9596 14.5283V14.4355H80.2452V14.5283V14.6211H82.9596V14.5283ZM80.2452 14.5283V14.4355C79.7985 14.4355 79.3805 14.3533 78.9903 14.1894L78.9544 14.275L78.9185 14.3605C79.3325 14.5345 79.7751 14.6211 80.2452 14.6211V14.5283ZM78.9544 14.275L78.9924 14.1903C78.6086 14.018 78.2681 13.7832 77.9705 13.4855L77.9048 13.5511L77.8392 13.6168C78.1528 13.9303 78.512 14.1781 78.9164 14.3596L78.9544 14.275ZM77.9048 13.5511L77.9713 13.4864C77.6817 13.189 77.4549 12.8487 77.2904 12.465L77.2051 12.5016L77.1198 12.5381C77.2932 12.9426 77.5328 13.3021 77.8383 13.6159L77.9048 13.5511ZM77.2051 12.5016L77.2907 12.4656C77.1268 12.0755 77.0446 11.6575 77.0446 11.2107H76.9518H76.859C76.859 11.6809 76.9457 12.1234 77.1196 12.5375L77.2051 12.5016ZM76.9518 11.2107H77.0446C77.0446 10.764 77.1268 10.3503 77.2904 9.96853L77.2051 9.93197L77.1198 9.89542C76.9457 10.3018 76.859 10.7406 76.859 11.2107H76.9518ZM77.2051 9.93197L77.2907 9.96791C77.4552 9.57624 77.682 9.23219 77.9713 8.93509L77.9048 8.87035L77.8383 8.80561C77.5325 9.11974 77.2929 9.48344 77.1196 9.89604L77.2051 9.93197ZM77.9048 8.87035L77.9705 8.93597C78.2678 8.63863 78.6078 8.40808 78.991 8.24387L78.9544 8.15858L78.9178 8.07328C78.5128 8.24686 78.1531 8.49083 77.8392 8.80473L77.9048 8.87035ZM78.9544 8.15858L78.9918 8.24352C79.3816 8.07199 79.7991 7.98597 80.2452 7.98597V7.89317V7.80037C79.7745 7.80037 79.3314 7.89129 78.917 8.07364L78.9544 8.15858ZM80.2452 7.89317V7.98597H83.5628V7.89317V7.80037H80.2452V7.89317ZM83.5628 7.89317H83.6556V5.48039H83.5628H83.47V7.89317H83.5628ZM83.5628 5.48039V5.57319H84.7692V5.48039V5.38759H83.5628V5.48039ZM84.7692 5.48039H84.6764V14.5283H84.7692H84.862V5.48039H84.7692ZM93.9667 11.066L93.8871 11.0182L93.8863 11.0197L93.9667 11.066ZM93.2067 11.8381L93.2538 11.918L93.2544 11.9176L93.2067 11.8381ZM87.5246 12.1155V12.0227H87.3775L87.4408 12.1555L87.5246 12.1155ZM88.2726 12.9841L88.2202 13.0608L88.2211 13.0614L88.2726 12.9841ZM93.3515 13.3219H93.4443V13.2291H93.3515V13.3219ZM93.3515 14.5283V14.6211H93.4443V14.5283H93.3515ZM88.1157 14.275L88.0777 14.3597L88.0798 14.3605L88.1157 14.275ZM87.0662 13.5511L86.9997 13.6159L87.0005 13.6168L87.0662 13.5511ZM86.3665 12.5016L86.2809 12.5375L86.2812 12.5381L86.3665 12.5016ZM86.3665 9.93197L86.4518 9.96853L86.452 9.96791L86.3665 9.93197ZM87.0662 8.87035L87.0005 8.80472L86.9997 8.80561L87.0662 8.87035ZM88.1157 8.15858L88.1523 8.24388L88.1531 8.24352L88.1157 8.15858ZM93.2067 8.1827L93.158 8.26177L93.1604 8.26315L93.2067 8.1827ZM93.9667 8.94273L93.8862 8.98901L93.8877 8.99137L93.9667 8.94273ZM92.7845 10.6437L92.7188 10.5781V10.5781L92.7845 10.6437ZM92.7845 9.36497L92.8501 9.29935V9.29935L92.7845 9.36497ZM88.4294 9.34084L88.3853 9.2592L88.3843 9.25972L88.4294 9.34084ZM87.7056 9.99229L87.7814 10.0458V10.0458L87.7056 9.99229ZM87.3436 10.9091L87.2518 10.896L87.2366 11.0019H87.3436V10.9091ZM94.2563 10.0044H94.1635C94.1635 10.3741 94.0713 10.7114 93.8872 11.0182L93.9667 11.066L94.0463 11.1137C94.2482 10.7772 94.3491 10.4067 94.3491 10.0044H94.2563ZM93.9667 11.066L93.8863 11.0197C93.7093 11.3276 93.4673 11.5735 93.159 11.7585L93.2067 11.8381L93.2544 11.9176C93.5896 11.7166 93.8542 11.4478 94.0472 11.1122L93.9667 11.066ZM93.2067 11.8381L93.1596 11.7581C92.8613 11.934 92.524 12.0227 92.1451 12.0227V12.1155V12.2083C92.5543 12.2083 92.9247 12.1121 93.2538 11.918L93.2067 11.8381ZM92.1451 12.1155V12.0227H87.5246V12.1155V12.2083H92.1451V12.1155ZM87.5246 12.1155L87.4408 12.1555C87.6169 12.5244 87.8772 12.8265 88.2202 13.0608L88.2726 12.9841L88.3249 12.9075C88.0084 12.6914 87.7701 12.4144 87.6083 12.0756L87.5246 12.1155ZM88.2726 12.9841L88.2211 13.0614C88.5746 13.297 88.9706 13.4147 89.4066 13.4147V13.3219V13.2291C89.0061 13.2291 88.6461 13.1216 88.324 12.9069L88.2726 12.9841ZM89.4066 13.3219V13.4147H93.3515V13.3219V13.2291H89.4066V13.3219ZM93.3515 13.3219H93.2587V14.5283H93.3515H93.4443V13.3219H93.3515ZM93.3515 14.5283V14.4355H89.4066V14.5283V14.6211H93.3515V14.5283ZM89.4066 14.5283V14.4355C88.9598 14.4355 88.5418 14.3533 88.1517 14.1894L88.1157 14.275L88.0798 14.3605C88.4939 14.5345 88.9364 14.6211 89.4066 14.6211V14.5283ZM88.1157 14.275L88.1537 14.1903C87.7699 14.018 87.4294 13.7832 87.1318 13.4855L87.0662 13.5511L87.0005 13.6168C87.3141 13.9303 87.6733 14.1781 88.0777 14.3596L88.1157 14.275ZM87.0662 13.5511L87.1327 13.4864C86.8431 13.189 86.6162 12.8487 86.4518 12.465L86.3665 12.5016L86.2812 12.5381C86.4545 12.9426 86.6941 13.3021 86.9997 13.6159L87.0662 13.5511ZM86.3665 12.5016L86.452 12.4656C86.2881 12.0755 86.2059 11.6575 86.2059 11.2107H86.1131H86.0203C86.0203 11.6809 86.107 12.1234 86.2809 12.5375L86.3665 12.5016ZM86.1131 11.2107H86.2059C86.2059 10.764 86.2881 10.3503 86.4518 9.96853L86.3665 9.93197L86.2812 9.89542C86.107 10.3018 86.0203 10.7406 86.0203 11.2107H86.1131ZM86.3665 9.93197L86.452 9.96791C86.6165 9.57624 86.8434 9.23219 87.1327 8.93509L87.0662 8.87035L86.9997 8.80561C86.6938 9.11974 86.4542 9.48344 86.2809 9.89604L86.3665 9.93197ZM87.0662 8.87035L87.1318 8.93597C87.4291 8.63863 87.7691 8.40808 88.1523 8.24387L88.1157 8.15858L88.0792 8.07328C87.6741 8.24686 87.3144 8.49083 87.0005 8.80473L87.0662 8.87035ZM88.1157 8.15858L88.1531 8.24352C88.5429 8.07199 88.9604 7.98597 89.4066 7.98597V7.89317V7.80037C88.9358 7.80037 88.4928 7.89129 88.0784 8.07364L88.1157 8.15858ZM89.4066 7.89317V7.98597H92.1451V7.89317V7.80037H89.4066V7.89317ZM92.1451 7.89317V7.98597C92.5232 7.98597 92.8601 8.07835 93.1581 8.26174L93.2067 8.1827L93.2553 8.10367C92.926 7.90101 92.5551 7.80037 92.1451 7.80037V7.89317ZM93.2067 8.1827L93.1604 8.26315C93.4679 8.43996 93.7095 8.6815 93.8863 8.98899L93.9667 8.94273L94.0472 8.89647C93.854 8.56055 93.5889 8.29541 93.253 8.10226L93.2067 8.1827ZM93.9667 8.94273L93.8877 8.99137C94.0711 9.28937 94.1635 9.62619 94.1635 10.0044H94.2563H94.3491C94.3491 9.59435 94.2484 9.22341 94.0458 8.89409L93.9667 8.94273ZM92.1451 10.9091V11.0019C92.4191 11.0019 92.6558 10.9036 92.8501 10.7094L92.7845 10.6437L92.7188 10.5781C92.5592 10.7377 92.3697 10.8163 92.1451 10.8163V10.9091ZM92.7845 10.6437L92.8501 10.7094C93.0443 10.5151 93.1427 10.2784 93.1427 10.0044H93.0499H92.9571C92.9571 10.229 92.8784 10.4185 92.7188 10.5781L92.7845 10.6437ZM93.0499 10.0044H93.1427C93.1427 9.73032 93.0443 9.49362 92.8501 9.29935L92.7845 9.36497L92.7188 9.43059C92.8784 9.59019 92.9571 9.77975 92.9571 10.0044H93.0499ZM92.7845 9.36497L92.8501 9.29935C92.6558 9.10508 92.4191 9.00676 92.1451 9.00676V9.09956V9.19236C92.3697 9.19236 92.5592 9.27098 92.7188 9.43059L92.7845 9.36497ZM92.1451 9.09956V9.00676H89.4066V9.09956V9.19236H92.1451V9.09956ZM89.4066 9.09956V9.00676C89.038 9.00676 88.697 9.09068 88.3853 9.2592L88.4294 9.34084L88.4735 9.42248C88.7569 9.26929 89.0674 9.19236 89.4066 9.19236V9.09956ZM88.4294 9.34084L88.3843 9.25972C88.0825 9.42742 87.8307 9.65406 87.6297 9.93877L87.7056 9.99229L87.7814 10.0458C87.9664 9.78363 88.1973 9.57596 88.4745 9.42196L88.4294 9.34084ZM87.7056 9.99229L87.6297 9.93877C87.4281 10.2245 87.3021 10.544 87.2518 10.896L87.3436 10.9091L87.4355 10.9223C87.4817 10.5987 87.597 10.307 87.7814 10.0458L87.7056 9.99229ZM87.3436 10.9091V11.0019H92.1451V10.9091V10.8163H87.3436V10.9091Z" fill="#0b0f1a" mask="url(#path-3-outside-1_3512_21285)"/>
</svg>
